<?xml version="1.0" standalone="no"?>
<!DOCTYPE svg PUBLIC "-//W3C//DTD SVG 20010904//EN"
 "http://www.w3.org/TR/2001/REC-SVG-20010904/DTD/svg10.dtd">
<svg version="1.0" xmlns="http://www.w3.org/2000/svg"
 width="585.000000pt" height="65.000000pt" viewBox="0 0 585.000000 65.000000"
 preserveAspectRatio="xMidYMid meet">

<g transform="translate(0.000000,65.000000) scale(0.100000,-0.100000)"
fill="#000000" stroke="none">
<path d="M0 325 l0 -325 65 0 65 0 0 130 0 130 130 0 130 0 0 -65 0 -65 65 0
65 0 0 -65 0 -65 65 0 65 0 0 65 0 65 -65 0 -65 0 0 65 0 65 -65 0 -65 0 0 65
0 65 65 0 65 0 0 65 0 65 65 0 65 0 0 65 0 65 -65 0 -65 0 0 -65 0 -65 -65 0
-65 0 0 -65 0 -65 -130 0 -130 0 0 130 0 130 -65 0 -65 0 0 -325z"/>
<path d="M780 325 l0 -325 325 0 325 0 0 65 0 65 -260 0 -260 0 0 65 0 65 195
0 195 0 0 65 0 65 -195 0 -195 0 0 65 0 65 260 0 260 0 0 65 0 65 -325 0 -325
0 0 -325z"/>
<path d="M1560 325 l0 -325 65 0 65 0 0 65 0 65 195 0 195 0 0 -65 0 -65 65 0
65 0 0 65 0 65 -65 0 -65 0 0 65 0 65 65 0 65 0 0 130 0 130 -65 0 -65 0 0 65
0 65 -260 0 -260 0 0 -325z m520 65 l0 -130 -195 0 -195 0 0 130 0 130 195 0
195 0 0 -130z"/>
<path d="M2340 325 l0 -325 65 0 65 0 0 195 0 195 65 0 65 0 0 -65 0 -65 65 0
65 0 0 -65 0 -65 65 0 65 0 0 -65 0 -65 65 0 65 0 0 325 0 325 -65 0 -65 0 0
-195 0 -195 -65 0 -65 0 0 65 0 65 -65 0 -65 0 0 65 0 65 -65 0 -65 0 0 65 0
65 -65 0 -65 0 0 -325z"/>
<path d="M3250 585 l0 -65 -65 0 -65 0 0 -260 0 -260 65 0 65 0 0 65 0 65 195
0 195 0 0 -65 0 -65 65 0 65 0 0 260 0 260 -65 0 -65 0 0 65 0 65 -195 0 -195
0 0 -65z m390 -195 l0 -130 -195 0 -195 0 0 130 0 130 195 0 195 0 0 -130z"/>
</g>
</svg>
